HIERARCHY
ROOT Hips
{
	OFFSET	0	0	0
	CHANNELS 6  Xposition Yposition Zposition Xrotation Yrotation Zrotation
	JOINT Spine
	{
		OFFSET	0	6.43035	1.29592
		CHANNELS 3  Xrotation Yrotation Zrotation
		JOINT Spine1
		{
			OFFSET	0	11.0515	-1.97348
			CHANNELS 3  Xrotation Yrotation Zrotation
			JOINT Spine2
			{
				OFFSET	0	8.37743	0.897934
				CHANNELS 3  Xrotation Yrotation Zrotation
				JOINT Spine3
				{
					OFFSET	0	10.0253	2.97996
					CHANNELS 3  Xrotation Yrotation Zrotation
					JOINT Spine4
					{
						OFFSET	0	14.8406	-1.51958
						CHANNELS 3  Xrotation Yrotation Zrotation
						JOINT Neck
						{
							OFFSET	0	7.0848	-4.96331
							CHANNELS 3  Xrotation Yrotation Zrotation
							JOINT Head
							{
								OFFSET	0	8.50571	-2.54579
								CHANNELS 3  Xrotation Yrotation Zrotation
								End Site
								{
									OFFSET	0	17.7416	-0.858465
								}
							}
						}
					}
					JOINT LeftShoulder
					{
						OFFSET	-4.26272	18.0376	-8.50571
						CHANNELS 3  Xrotation Yrotation Zrotation
						JOINT LeftArm
						{
							OFFSET	-9.26857	-2.54579	3.26613
							CHANNELS 3  Xrotation Yrotation Zrotation
							JOINT LeftForeArm
							{
								OFFSET	-28.2392	-1.28889	2.01568
								CHANNELS 3  Xrotation Yrotation Zrotation
								JOINT LeftHand
								{
									OFFSET	-22.9751	-1.58771	1.63994
									CHANNELS 3  Xrotation Yrotation Zrotation
									End Site
									{
										OFFSET	-8.38477	-0.579434	0.598457
									}
								}
							}
						}
					}
					JOINT RightShoulder
					{
						OFFSET	4.26272	18.0376	-8.50571
						CHANNELS 3  Xrotation Yrotation Zrotation
						JOINT RightArm
						{
							OFFSET	9.26857	-2.54579	3.26613
							CHANNELS 3  Xrotation Yrotation Zrotation
							JOINT RightForeArm
							{
								OFFSET	28.2392	-1.28889	2.01568
								CHANNELS 3  Xrotation Yrotation Zrotation
								JOINT RightHand
								{
									OFFSET	22.9751	-1.58771	1.63994
									CHANNELS 3  Xrotation Yrotation Zrotation
									End Site
									{
										OFFSET	8.38477	-0.579434	0.598457
									}
								}
							}
						}
					}
				}
			}
		}
	}
	JOINT LeftUpLeg
	{
		OFFSET	-8.79432	-3.21518	-0.64796
		CHANNELS 3  Xrotation Yrotation Zrotation
		JOINT LeftLeg
		{
			OFFSET	-1.93242	-37.8649	-0.591911
			CHANNELS 3  Xrotation Yrotation Zrotation
			JOINT LeftFoot
			{
				OFFSET	-1.8889	-34.8184	2.99439
				CHANNELS 3  Xrotation Yrotation Zrotation
				JOINT LeftToeBase
				{
					OFFSET	0	-4.3392	-11.5249
					CHANNELS 3  Xrotation Yrotation Zrotation
					End Site
					{
						OFFSET	0	-1.73568	-6.94272
					}
				}
			}
		}
	}
	JOINT RightUpLeg
	{
		OFFSET	8.79432	-3.21518	-0.64796
		CHANNELS 3  Xrotation Yrotation Zrotation
		JOINT RightLeg
		{
			OFFSET	1.93242	-37.8649	-0.591911
			CHANNELS 3  Xrotation Yrotation Zrotation
			JOINT RightFoot
			{
				OFFSET	1.8889	-34.8184	2.99439
				CHANNELS 3  Xrotation Yrotation Zrotation
				JOINT RightToeBase
				{
					OFFSET	0	-4.3392	-11.5249
					CHANNELS 3  Xrotation Yrotation Zrotation
					End Site
					{
						OFFSET	0	-1.73568	-6.94272
					}
				}
			}
		}
	}
}
MOTION
Frames: 19
Frame Time: 0.020408
 0 -5.59411 3.22603 -0 0 -0 -0 0 -0 -0 0 -0 -0 0 -0 -0 0 -0 -0 0 -0 -0 0 -0 -0 0 -0 -0 0 -0 -0 0 -0 -0 0 -0 -0 0 -0 -0 0 -0 -0 0 -0 -0 0 -0 -0 0 -0 -0 0 -0 -0 0 -0 -0 0 -0 -0 0 -0 -0 0 -0 -0 0 -0 -0 0 -0 -0 0 -0
 206.284 61.2183 -279.69 52.7803 -54.6024 -56.1724 179.995 179.983 -165.168 174.854 179.968 -155.279 174.988 179.903 -155.279 177.065 179.983 -165.168 177.156 -179.754 -175.062 175.653 171.708 -164.78 179.022 179.646 -175.672 178.37 -151.745 176.458 141.38 -172.588 -137.251 39.7693 -63.1433 34.8751 -0 3.3325 -20.6297 173.778 169.368 -166.927 37.2496 31.5145 -59.1057 53.8218 123.788 -46.6469 -0 0.769085 14.4002 70.8896 24.0277 50.6348 67.8497 167.805 179.968 160.597 179.953 171.708 176.863 180 -180 21.2896 -5.22309 50.2499 142.95 167.131 -179.908 157.787 179.944 171.713 0.167418 0 0
 206.308 61.0209 -279.876 53.2271 -54.2008 -55.4407 179.995 179.982 -165.176 174.794 179.966 -155.293 174.953 179.898 -155.293 177.106 179.982 -165.176 176.949 -179.736 -175.066 175.163 171.127 -164.928 178.86 178.167 -175.61 178.614 -151.476 176.988 141.838 -172.245 -137.567 39.6716 -63.6201 34.762 -0 3.11177 -20.4944 173.589 170.52 -166.602 36.699 30.4092 -59.1385 52.7419 124.747 -45.2241 -0 0.8547 15.0801 71.1436 23.315 50.3324 67.6973 167.683 -179.969 161.426 179.965 171.558 176.852 180 -180 20.8947 -5.08341 49.6136 142.832 167.175 -179.983 157.177 179.999 171.771 0.160826 0 0
 206.145 60.7608 -279.822 53.2446 -53.8733 -54.6818 179.999 179.996 -165.28 174.758 179.993 -155.467 174.967 179.979 -155.467 177.151 179.996 -165.28 176.762 -179.722 -175.101 174.741 170.597 -165.214 178.712 176.684 -175.578 178.832 -151.427 177.463 142.112 -171.807 -137.702 39.353 -63.8891 34.5651 -0 2.97672 -20.3261 173.413 171.59 -166.311 36.1467 29.4005 -59.1349 51.9035 125.617 -44.0467 -0 1.00542 15.671 71.2582 22.9896 50.1374 67.6571 167.562 -179.863 162.102 179.965 171.431 176.841 180 -180 20.5393 -4.82246 48.8673 142.586 167.174 -179.945 157.259 -179.995 171.822 0.15536 0 0
 205.425 60.6396 -280.04 52.7582 -54.1166 -55.1213 0.0027684 -0.0106187 14.6123 174.715 -179.98 -155.646 174.968 -179.94 -155.646 177.18 -179.989 -165.388 176.598 -179.71 -175.138 174.382 170.156 -165.437 178.586 175.457 -175.545 178.996 -151.386 177.819 142.519 -171.128 -137.654 39.1576 -64.2008 34.4251 -0 2.8455 -20.1976 173.423 172.599 -166.415 35.3119 28.2644 -59.4425 50.8274 126.727 -42.7123 -0 1.24564 16.2507 71.1817 22.6968 49.9283 67.4791 167.444 -179.873 162.219 179.999 171.33 176.829 180 -180 20.3003 -4.20712 48.4449 142.448 167.162 -179.825 157.143 179.983 171.88 0.150257 0 0
 204.649 60.3592 -280.134 52.7344 -54.3619 -54.6854 0.00273191 -0.010625 14.4196 174.652 -179.98 -155.967 174.936 -179.94 -155.967 177.229 -179.989 -165.58 176.367 -179.695 -175.203 173.838 169.909 -165.647 178.403 174.487 -175.529 179.186 -151.327 178.233 142.768 -170.39 -137.427 38.9915 -64.472 34.3106 -0 2.73741 -20.0552 173.345 172.934 -166.279 35.0739 28.2726 -60.2813 48.9457 128.415 -40.2978 -0 1.69698 16.7024 71.3314 22.7378 50.0206 67.415 167.201 -179.883 162.524 179.978 171.205 176.818 180 -180 20.196 -3.51532 47.8945 142.296 167.14 -179.939 157.449 179.976 171.946 0.147079 0 0
 204.052 60.2981 -280.201 51.6411 -56.1225 -54.8569 0.00117995 -0.00462915 14.2999 174.591 -179.991 -156.167 174.898 -179.974 -156.167 177.291 -179.995 -165.7 176.113 -179.676 -175.244 173.195 169.54 -165.586 178.197 173.485 -175.433 179.413 -151.335 178.725 142.976 -169.785 -136.892 38.229 -64.3727 33.5222 -0 2.68877 -19.9431 173.02 174.045 -165.695 34.2454 27.9234 -60.2349 47.7205 129.836 -38.312 -0 2.24831 17.4132 71.9452 22.9415 50.3279 67.508 166.793 179.988 162.15 -180 171.051 176.806 180 -180 19.9784 -3.1078 47.2393 142.353 167.033 179.985 157.635 -179.997 171.965 0.145494 0 0
 203.611 59.8903 -280.619 49.661 -58.7065 -55.935 179.998 179.994 -165.754 174.453 179.988 -156.256 174.776 179.965 -156.256 177.303 179.994 -165.754 175.835 -179.654 -175.264 172.552 169.218 -165.524 177.99 172.561 -175.34 179.377 -151.879 178.646 143.532 -169.531 -136.074 37.3199 -64.191 32.6399 -0 2.67048 -20.0011 172.203 174.986 -164.067 30.7374 28.4204 -59.7775 46.8824 130.903 -37.49 -0 2.96309 18.1484 73.204 22.7736 50.4062 67.4251 166.168 179.851 163.305 -179.995 170.764 176.793 180 -180 20.6492 -2.01952 46.2755 142.76 166.9 179.925 157.962 -179.981 171.952 0.14402 0 0
 203.359 59.8888 -280.649 48.9162 -58.8924 -55.6882 0.00193992 -0.00758822 14.3404 174.437 -179.986 -156.099 174.78 -179.957 -156.099 177.281 -179.992 -165.66 175.844 -179.653 -175.232 172.675 168.771 -166.014 178 171.375 -175.363 179.45 -152.352 178.806 144.454 -169.788 -135.369 35.815 -63.7344 31.096 -0 2.65748 -20.3407 171.82 176.116 -163.39 27.8333 27.6124 -60.2467 47.1447 130.997 -37.062 -0 3.09834 18.6895 74.4378 22.673 50.1327 67.5049 165.43 -179.934 162.945 -179.957 170.496 176.776 180 -180 20.6619 -1.46095 45.7303 143.103 166.798 -179.851 157.894 -179.952 172.013 0.141106 0 0
 203.476 59.9421 -281.516 48.7244 -58.5939 -55.9068 0.00524442 -0.0205083 14.3443 174.351 -179.961 -156.093 174.669 -179.884 -156.093 177.08 -179.979 -165.656 176.135 -179.677 -175.229 173.633 168.135 -166.389 178.276 170.443 -175.377 179.333 -152.686 178.551 145.544 -170.134 -134.589 34.4112 -63.1769 29.6741 -0 2.64909 -20.7475 171.405 177.158 -162.649 23.1037 26.6157 -60.9155 48.6831 129.926 -39.0502 -0 3.02052 18.9575 77.0722 23.0641 49.2563 67.8381 164.616 179.926 163.846 179.973 170.106 176.761 180 -180 20.7862 -0.941166 44.9083 143.48 166.608 -179.996 157.387 179.998 172.021 0.13828 0 0
 204.277 59.7862 -282.528 49.534 -57.9325 -53.6375 0.00183241 -0.0071342 14.405 174.224 -179.987 -155.992 174.521 -179.96 -155.992 177.003 -179.993 -165.595 176.088 -179.672 -175.21 173.651 167.732 -166.594 178.263 169.527 -175.35 179.449 -152.854 178.803 146.54 -170.432 -133.666 33.1099 -62.5722 28.3021 -0 2.64178 -21.1021 171.34 177.948 -162.622 20.4314 25.5599 -62.8809 49.9944 129.052 -40.3157 -0 2.88555 18.8055 79.1912 22.9945 48.5552 68.0024 163.982 179.908 163.889 179.995 169.803 176.747 180 -180 21.0583 -0.00255108 44.4397 143.09 166.516 -179.942 157.494 -179.992 172.068 0.136019 0 0
 204.271 59.2196 -282 48.4903 -55.803 -53.9169 179.997 179.99 -165.485 174.22 179.981 -155.809 174.594 179.943 -155.809 177.322 179.99 -165.485 175.357 -179.607 -175.178 171.584 167.867 -166.266 177.617 168.831 -175.191 178.988 -152.977 177.801 147.227 -171.046 -132.999 32.1443 -62.1439 27.3672 -0 2.63611 -21.4093 171.854 178.822 -163.813 20.4716 23.6082 -65.7703 49.3849 129.851 -39.7566 -0 2.79725 18.3948 79.7436 22.4036 48.6667 68.0535 163.615 -179.842 162.353 -179.989 169.588 176.732 180 -180 21.3379 -0.123265 42.9238 142.948 166.63 -179.987 158.069 -179.791 172.079 0.1357 0 0
 205.287 58.2302 -283.506 49.4588 -53.129 -52.4924 0.00173374 -0.00669668 14.5149 174.263 -179.987 -155.808 174.784 -179.962 -155.808 177.702 -179.993 -165.485 174.539 -179.538 -175.184 169.263 168.198 -166.007 176.887 168.281 -175.047 178.553 -152.241 176.856 147.876 -171.527 -132.982 31.2082 -61.7184 26.4578 -0 2.58863 -21.6482 172.697 179.049 -165.574 22.3628 22.06 -68.8667 47.0416 132.338 -36.7546 -0 3.34707 18.5041 80.5895 22.3045 48.9715 67.7216 163.293 -179.893 162.006 179.975 169.378 176.719 180 -180 21.4912 -0.309635 41.1569 142.871 166.444 179.956 156.54 -179.929 172.059 0.130301 0 0
 206.328 57.3394 -285.131 49.5673 -51.921 -51.0931 179.999 179.998 -165.534 174.284 179.996 -155.89 174.901 179.987 -155.89 178.053 179.998 -165.534 173.77 -179.475 -175.206 167.084 168.437 -165.742 176.196 167.644 -174.878 178.065 -151.509 175.795 148.168 -171.534 -133.166 30.8685 -61.6952 26.1969 -0 2.48188 -21.7445 173.399 178.875 -166.979 24.8648 21.0151 -71.3676 45.079 134.846 -33.6893 -0 3.96552 18.5073 81.4427 21.7754 49.0174 67.5127 163.043 179.736 161.569 179.947 169.126 176.705 180 -180 21.8613 -0.552105 39.6469 142.478 166.354 179.831 157.276 179.995 172.021 0.12941 0 0
 206.614 55.9461 -286.942 43.0173 -54.7789 -54.1057 180 179.998 -165.393 174.199 179.997 -155.655 174.978 179.99 -155.655 178.481 179.998 -165.393 172.613 -179.373 -175.171 163.887 168.881 -164.923 175.196 167.131 -174.543 177.654 -152.082 174.899 147.713 -171.369 -132.273 30.8346 -61.8289 26.085 -0 2.35527 -21.7606 173.743 178.464 -167.631 27.0802 20.259 -73.6252 43.513 137.104 -30.8849 -0 4.49757 18.612 82.7757 21.7666 49.2106 67.4809 162.975 179.975 162.397 -179.98 168.854 176.693 180 -180 23.6517 -0.311839 37.4022 142.465 166.382 179.755 158.684 -179.997 172.013 0.129204 0 0
 207.454 57.0327 -286.519 43.038 -55.5387 -51.2299 0.00217211 -0.00834143 14.5957 174.233 -179.984 -155.674 175.013 -179.953 -155.674 178.448 -179.992 -165.404 172.746 -179.384 -175.174 164.271 168.927 -165.454 175.304 167.13 -174.688 177.959 -153.353 175.565 147.466 -171.507 -130.417 30.4737 -61.6574 25.4363 -0 2.32151 -21.8201 173.984 179.653 -168.24 30.4009 18.0985 -78.4696 41.6339 139.795 -27.5511 -0 4.62443 18.5599 84.2855 21.2309 47.9696 67.621 162.999 179.825 164.663 -179.99 168.548 176.683 180 -180 24.0674 -1.5637 35.2417 142.261 166.467 179.855 158.085 -179.982 171.977 0.127798 0 0
 207.811 55.8229 -288.385 41.1137 -57.6938 -51.426 0.00229571 -0.00871434 14.7587 174.148 -179.984 -155.402 175.01 -179.951 -155.402 178.637 -179.991 -165.241 172.145 -179.326 -175.127 162.637 169.252 -164.881 174.801 167.135 -174.502 177.445 -154.914 174.447 146.711 -172.082 -128.749 29.7045 -61.1088 24.7132 -0 2.34625 -21.8935 173.618 -178.181 -167.755 31.8929 15.4347 -81.5758 40.0809 142.541 -24.958 -0 4.86379 18.8854 86.1903 21.244 46.3569 67.0734 163.012 179.865 166.029 179.995 168.52 176.675 180 -180 24.7379 -2.5555 33.1986 141.991 166.634 179.959 158.162 179.997 171.982 0.12732 0 0
 207.888 55.7146 -289.092 38.7653 -58.4629 -52.4889 0.0024343 -0.00922859 14.7768 174.056 -179.983 -155.372 174.996 -179.948 -155.372 178.808 -179.991 -165.223 171.574 -179.277 -175.128 161.14 170.111 -165.133 174.339 167.812 -174.614 176.949 -157.657 173.386 145.751 -173.704 -126.491 28.6728 -60.2837 23.5185 -0 2.48239 -22.0035 172.466 -177.257 -165.607 32.6782 15.7338 -84.6074 38.7375 145.509 -23.0219 -0 5.76068 17.9286 87.0186 20.9953 44.531 66.4925 163.163 -179.933 166.984 -179.995 168.54 176.67 180 -180 25.4712 -3.23819 31.9604 141.769 166.838 -179.928 159.135 179.992 172.033 0.128064 0 0
 208.531 58.7382 -291.321 17.1564 -66.242 -68.1569 0.00937391 -0.0352665 14.8851 173.691 -179.934 -155.191 174.974 -179.801 -155.191 179.449 -179.965 -165.115 169.372 -179.083 -175.124 155.379 171.59 -165.557 172.504 167.438 -174.491 177.934 -162.729 175.579 146.437 -176.338 -122.254 27.1557 -59.308 21.2144 -0 2.59442 -22.5938 171.388 -174.548 -163.926 32.326 17.1762 -89.2918 36.7576 150.152 -19.3522 -0 7.34069 16.5144 88.5307 19.9965 42.6 64.9737 163.211 179.523 168.065 179.968 168.513 176.665 180 -180 27.8564 -3.04083 29.5473 142.424 166.772 179.92 161.27 179.805 172.031 0.127047 0 0
